<svg width="20" height="20" viewBox="0 0 20 20" fill="none" xmlns="http://www.w3.org/2000/svg">
<path d="M9.16671 15C9.16671 15.9167 8.41671 16.6667 7.50004 16.6667C6.58337 16.6667 5.83337 15.9167 5.83337 15C5.83337 14.0834 6.58337 13.3334 7.50004 13.3334C8.41671 13.3334 9.16671 14.0834 9.16671 15ZM7.50004 8.33337C6.58337 8.33337 5.83337 9.08337 5.83337 10C5.83337 10.9167 6.58337 11.6667 7.50004 11.6667C8.41671 11.6667 9.16671 10.9167 9.16671 10C9.16671 9.08337 8.41671 8.33337 7.50004 8.33337ZM7.50004 3.33337C6.58337 3.33337 5.83337 4.08337 5.83337 5.00004C5.83337 5.91671 6.58337 6.66671 7.50004 6.66671C8.41671 6.66671 9.16671 5.91671 9.16671 5.00004C9.16671 4.08337 8.41671 3.33337 7.50004 3.33337ZM12.5 6.66671C13.4167 6.66671 14.1667 5.91671 14.1667 5.00004C14.1667 4.08337 13.4167 3.33337 12.5 3.33337C11.5834 3.33337 10.8334 4.08337 10.8334 5.00004C10.8334 5.91671 11.5834 6.66671 12.5 6.66671ZM12.5 8.33337C11.5834 8.33337 10.8334 9.08337 10.8334 10C10.8334 10.9167 11.5834 11.6667 12.5 11.6667C13.4167 11.6667 14.1667 10.9167 14.1667 10C14.1667 9.08337 13.4167 8.33337 12.5 8.33337ZM12.5 13.3334C11.5834 13.3334 10.8334 14.0834 10.8334 15C10.8334 15.9167 11.5834 16.6667 12.5 16.6667C13.4167 16.6667 14.1667 15.9167 14.1667 15C14.1667 14.0834 13.4167 13.3334 12.5 13.3334Z" fill="#1A1C1E"/>
</svg>
