<svg width="16" height="17" viewBox="0 0 16 17" fill="none" xmlns="http://www.w3.org/2000/svg">
<path d="M10.5033 10.0033H9.97667L9.79 9.82326C10.4433 9.06326 10.8367 8.07659 10.8367 7.00326C10.8367 4.60992 8.89667 2.66992 6.50333 2.66992C4.11 2.66992 2.17 4.60992 2.17 7.00326C2.17 9.39659 4.11 11.3366 6.50333 11.3366C7.57666 11.3366 8.56333 10.9433 9.32333 10.2899L9.50333 10.4766V11.0033L12.8367 14.3299L13.83 13.3366L10.5033 10.0033ZM6.50333 10.0033C4.84333 10.0033 3.50333 8.66326 3.50333 7.00326C3.50333 5.34326 4.84333 4.00326 6.50333 4.00326C8.16333 4.00326 9.50333 5.34326 9.50333 7.00326C9.50333 8.66326 8.16333 10.0033 6.50333 10.0033Z" fill="#1A1C1E"/>
</svg>
